<svg version="1.1" id="Layer_1" xmlns="http://www.w3.org/2000/svg" xmlns:xlink="http://www.w3.org/1999/xlink" x="0px" y="0px"
	 width="100%" viewBox="0 0 500 500" enable-background="new 0 0 500 500" xml:space="preserve">
<path fill="#000000" opacity="1.000000" stroke="none" 
	d="
M228.000000,501.000000 
	C152.000015,501.000000 76.500038,501.000000 1.000041,501.000000 
	C1.000027,334.333405 1.000027,167.666779 1.000013,1.000130 
	C167.666565,1.000087 334.333130,1.000087 500.999756,1.000043 
	C500.999847,167.666534 500.999847,334.333069 500.999939,500.999817 
	C410.166656,501.000000 319.333344,501.000000 228.000000,501.000000 
M246.614151,402.942017 
	C250.700821,403.271942 254.823547,404.114777 258.867004,403.830414 
	C268.859436,403.127747 279.015015,402.833191 288.750671,400.732361 
	C325.165222,392.874603 355.474670,374.703522 378.953918,345.482056 
	C391.297882,330.119202 400.256378,312.826050 405.587708,294.094788 
	C410.236206,277.762634 412.454315,260.902130 411.243622,243.552994 
	C410.216400,228.832352 407.673920,214.669830 402.959747,200.774536 
	C393.465881,172.790833 376.637573,150.006241 353.844574,131.498734 
	C342.198059,122.041969 329.228607,114.663940 315.269440,109.269737 
	C303.226440,104.615990 290.807922,101.399345 277.860779,99.730827 
	C265.814270,98.178368 253.727493,97.696030 241.966171,99.443359 
	C229.167343,101.344833 216.567062,105.196373 204.186783,109.156189 
	C186.124069,114.933502 170.554413,125.263634 156.670959,138.047913 
	C145.243744,148.570435 135.454758,160.422470 127.512680,173.900589 
	C115.934067,193.550125 108.763397,214.663208 107.342354,237.268433 
	C106.518562,250.372787 107.734009,263.714722 109.164658,276.826111 
	C111.378387,297.114044 119.480850,315.470490 130.261353,332.599670 
	C138.997314,346.480225 149.865005,358.563812 162.533356,369.050293 
	C174.612732,379.049194 187.985275,386.825073 202.476974,392.641754 
	C216.338348,398.205444 230.738571,401.748352 246.614151,402.942017 
z"/>
<path fill="#5271FD" opacity="1.000000" stroke="none" 
	d="
M246.142273,402.942078 
	C230.738571,401.748352 216.338348,398.205444 202.476974,392.641754 
	C187.985275,386.825073 174.612732,379.049194 162.533356,369.050293 
	C149.865005,358.563812 138.997314,346.480225 130.261353,332.599670 
	C119.480850,315.470490 111.378387,297.114044 109.164658,276.826111 
	C107.734009,263.714722 106.518562,250.372787 107.342354,237.268433 
	C108.763397,214.663208 115.934067,193.550125 127.512680,173.900589 
	C135.454758,160.422470 145.243744,148.570435 156.670959,138.047913 
	C170.554413,125.263634 186.124069,114.933502 204.186783,109.156189 
	C216.567062,105.196373 229.167343,101.344833 241.966171,99.443359 
	C253.727493,97.696030 265.814270,98.178368 277.860779,99.730827 
	C290.807922,101.399345 303.226440,104.615990 315.269440,109.269737 
	C329.228607,114.663940 342.198059,122.041969 353.844574,131.498734 
	C376.637573,150.006241 393.465881,172.790833 402.959747,200.774536 
	C407.673920,214.669830 410.216400,228.832352 411.243622,243.552994 
	C412.454315,260.902130 410.236206,277.762634 405.587708,294.094788 
	C400.256378,312.826050 391.297882,330.119202 378.953918,345.482056 
	C355.474670,374.703522 325.165222,392.874603 288.750671,400.732361 
	C279.015015,402.833191 268.859436,403.127747 258.867004,403.830414 
	C254.823547,404.114777 250.700821,403.271942 246.142273,402.942078 
M290.035980,300.538879 
	C306.506378,282.532867 327.911774,274.910126 352.230560,271.728821 
	C326.852570,267.313324 304.709167,258.699860 286.917572,240.489914 
	C269.002106,222.153183 261.648132,199.496231 258.628662,174.033005 
	C257.871185,176.040756 257.308502,177.211258 256.983398,178.444366 
	C254.277039,188.709366 252.096909,199.142563 248.824417,209.221893 
	C244.047684,223.934372 235.677673,236.834396 224.656418,247.484406 
	C211.471420,260.225281 195.517410,268.310944 177.109772,271.008423 
	C173.909668,271.477356 170.765778,272.330078 167.595917,273.005554 
	C218.219040,281.045563 253.304428,313.081177 258.337738,370.345001 
	C259.136658,368.386566 259.771973,367.317902 260.005402,366.167664 
	C260.787445,362.314362 261.205719,358.376923 262.156250,354.569855 
	C267.136932,334.620911 274.914520,316.072906 290.035980,300.538879 
M192.746216,200.161346 
	C195.111115,198.975800 197.476013,197.790253 200.859375,196.094147 
	C191.685425,192.860413 185.516098,187.769836 182.990738,178.566010 
	C179.595642,187.375687 174.240479,193.677261 164.361679,195.891769 
	C174.052185,200.243912 174.364624,200.557144 182.299438,213.135254 
	C185.488480,209.049728 188.803223,204.803177 192.746216,200.161346 
M383.585175,258.950256 
	C380.658508,256.262177 377.731842,253.574127 375.210632,251.258469 
	C372.509888,253.919891 369.302704,257.080383 366.095520,260.240845 
	C366.938629,258.888885 367.781738,257.536896 368.624817,256.184937 
	C371.672760,259.885101 374.720703,263.585297 377.768646,267.285461 
	C377.903595,266.224091 381.111786,263.639252 384.222137,260.941589 
	C384.555023,260.652863 384.317383,259.706329 383.585175,258.950256 
z"/>
<path fill="#000000" opacity="1.000000" stroke="none" 
	d="
M289.785217,300.789856 
	C274.914520,316.072906 267.136932,334.620911 262.156250,354.569855 
	C261.205719,358.376923 260.787445,362.314362 260.005402,366.167664 
	C259.771973,367.317902 259.136658,368.386566 258.337738,370.345001 
	C253.304428,313.081177 218.219040,281.045563 167.595917,273.005554 
	C170.765778,272.330078 173.909668,271.477356 177.109772,271.008423 
	C195.517410,268.310944 211.471420,260.225281 224.656418,247.484406 
	C235.677673,236.834396 244.047684,223.934372 248.824417,209.221893 
	C252.096909,199.142563 254.277039,188.709366 256.983398,178.444366 
	C257.308502,177.211258 257.871185,176.040756 258.628662,174.033005 
	C261.648132,199.496231 269.002106,222.153183 286.917572,240.489914 
	C304.709167,258.699860 326.852570,267.313324 352.230560,271.728821 
	C327.911774,274.910126 306.506378,282.532867 289.785217,300.789856 
z"/>
<path fill="#000000" opacity="1.000000" stroke="none" 
	d="
M192.432083,200.358978 
	C188.803223,204.803177 185.488480,209.049728 182.299438,213.135254 
	C174.364624,200.557144 174.052185,200.243912 164.361679,195.891769 
	C174.240479,193.677261 179.595642,187.375687 182.990738,178.566010 
	C185.516098,187.769836 191.685425,192.860413 200.859375,196.094147 
	C197.476013,197.790253 195.111115,198.975800 192.432083,200.358978 
z"/>
<path fill="#000000" opacity="1.000000" stroke="none" 
	d="
M383.964783,259.007599 
	C384.317383,259.706329 384.555023,260.652863 384.222137,260.941589 
	C381.111786,263.639252 377.903595,266.224091 377.768646,267.285461 
	C374.720703,263.585297 371.672760,259.885101 368.624817,256.184937 
	C367.781738,257.536896 366.938629,258.888885 366.095520,260.240845 
	C369.302704,257.080383 372.509888,253.919891 375.210632,251.258469 
	C377.731842,253.574127 380.658508,256.262177 383.964783,259.007599 
z"/>
</svg>