<svg version="1.1" id="Layer_1" xmlns="http://www.w3.org/2000/svg" xmlns:xlink="http://www.w3.org/1999/xlink" x="0px" y="0px"
	 width="100%" viewBox="0 0 424 130" enable-background="new 0 0 424 130" xml:space="preserve">
<path fill="#FEFEFF" opacity="1.000000" stroke="none" 
	d="
M274.000000,131.000000 
	C182.666687,131.000000 91.833374,131.000000 1.000049,131.000000 
	C1.000032,87.666702 1.000032,44.333397 1.000016,1.000072 
	C142.333267,1.000048 283.666534,1.000048 424.999878,1.000024 
	C424.999908,44.333256 424.999908,87.666512 424.999939,130.999878 
	C374.833344,131.000000 324.666656,131.000000 274.000000,131.000000 
M6.631283,80.768120 
	C15.560601,115.033264 47.729023,135.934433 84.050735,127.406044 
	C114.965721,120.147186 131.616211,91.658112 132.340698,69.508362 
	C133.065643,47.344128 125.783470,29.132561 108.475777,15.252827 
	C99.241714,7.847666 88.680336,3.856913 76.667488,2.538504 
	C54.918598,0.151565 36.279064,6.337336 21.858364,22.328663 
	C7.203381,38.579788 1.859666,58.191166 6.631283,80.768120 
M250.880737,62.666634 
	C253.037521,65.483299 254.986755,67.937424 251.902252,71.763908 
	C247.237030,77.551361 243.223282,83.864578 238.943970,89.962296 
	C236.041931,94.097504 233.159210,98.246269 229.846817,102.992203 
	C234.080582,102.992203 237.572906,102.688942 240.989853,103.067024 
	C245.520187,103.568306 248.300613,101.870834 250.678986,98.021439 
	C254.382767,92.026863 258.669312,86.392357 263.166809,79.949280 
	C268.079376,87.036644 272.381165,93.331177 276.798645,99.543480 
	C277.712708,100.828918 279.002350,102.703026 280.211853,102.776543 
	C285.869110,103.120438 291.558899,102.929222 298.093933,102.929222 
	C290.318329,92.227547 283.353394,82.294762 275.981567,72.673721 
	C273.203033,69.047455 272.223297,66.491226 275.466400,62.372086 
	C281.681122,54.478577 287.176880,46.019012 293.459686,37.100571 
	C289.062195,37.100571 285.603027,37.351166 282.196014,37.036583 
	C278.019012,36.650917 275.177185,38.265167 273.043793,41.707054 
	C270.946808,45.090141 268.663391,48.357342 266.550720,51.731094 
	C264.596100,54.852482 262.848816,55.248016 260.734467,51.805672 
	C258.298920,47.840332 255.723923,43.949673 252.995621,40.181416 
	C252.106842,38.953846 250.597046,37.469830 249.284698,37.380917 
	C244.391342,37.049374 239.462021,37.248501 234.553925,37.248501 
	C234.553925,37.894737 234.427322,38.292805 234.572205,38.508595 
	C239.853043,46.373947 245.159134,54.222347 250.880737,62.666634 
M352.672485,88.472893 
	C353.322266,88.335632 353.974945,88.210739 354.621399,88.059227 
	C363.400024,86.001602 367.245270,79.146935 365.979187,67.818954 
	C365.139404,60.305653 359.875977,55.914337 351.455627,55.796333 
	C346.966309,55.733414 342.473602,55.868866 337.985687,55.768803 
	C335.320312,55.709370 333.974731,56.602886 334.002441,59.479912 
	C334.087341,68.292999 333.926514,77.110695 334.187988,85.916908 
	C334.219208,86.968460 336.222778,88.776306 337.385132,88.837067 
	C342.184662,89.087952 347.012360,88.800980 352.672485,88.472893 
M312.688873,68.963547 
	C309.319641,68.242203 306.582550,67.127388 308.972717,62.292313 
	C314.788025,62.292313 320.685608,62.292313 326.498108,62.292313 
	C327.214539,55.285305 327.214172,55.262951 321.029724,55.366653 
	C314.552765,55.475262 308.076874,55.709217 301.599976,55.732578 
	C298.865631,55.742443 297.027008,56.419804 297.029297,59.545502 
	C297.035797,68.358345 296.950317,77.172813 297.132690,85.981850 
	C297.153625,86.992943 298.619690,88.819832 299.448273,88.838707 
	C308.536469,89.045685 317.631165,88.968544 326.734650,88.968544 
	C326.734650,86.099899 326.734650,83.843842 326.734650,81.944664 
	C321.965576,81.944664 317.507446,82.067467 313.059418,81.908058 
	C309.085938,81.765663 306.726105,80.133781 308.645691,75.075447 
	C313.476379,75.075447 318.541260,75.075447 323.661316,75.075447 
	C323.661316,72.448120 323.661316,70.398994 323.661316,68.051331 
	C321.347900,68.051331 319.366180,67.942802 317.403534,68.089622 
	C316.102875,68.186920 314.829590,68.650070 312.688873,68.963547 
M217.586273,89.209564 
	C219.413605,89.143234 221.255554,89.201347 223.065704,88.988762 
	C230.420670,88.124992 234.803192,82.929619 234.546997,75.316818 
	C230.340332,74.749474 226.598343,74.331291 224.160416,79.412155 
	C223.410675,80.974686 219.274170,82.214371 217.366547,81.575905 
	C215.184097,80.845474 213.134354,78.111122 212.184906,75.776543 
	C211.313721,73.634483 211.430054,70.695869 212.129532,68.421349 
	C212.825607,66.157860 214.452911,63.055058 216.282837,62.554718 
	C218.503082,61.947659 222.833832,62.918766 223.676819,64.543159 
	C226.430267,69.848961 230.442032,68.594833 234.592285,68.243980 
	C234.766846,60.216640 228.534088,54.443546 219.687714,54.201939 
	C209.736404,53.930145 201.795059,60.534157 201.349533,69.451958 
	C200.692078,82.611282 205.264648,88.498291 217.586273,89.209564 
M175.947174,70.201469 
	C177.767578,60.059776 174.266830,55.777302 164.165573,55.765205 
	C160.002075,55.760216 155.805099,56.039757 151.685104,55.604778 
	C147.984711,55.214100 146.891144,56.627552 146.939194,60.010654 
	C147.052704,68.005157 147.204361,76.006721 146.978882,83.995216 
	C146.866165,87.988525 148.279099,89.542351 152.187408,89.029404 
	C153.628189,88.840317 155.099045,88.880341 157.098419,88.791862 
	C157.098419,85.112419 157.098419,81.711380 157.098419,78.019852 
	C164.355560,77.515259 172.077148,79.207008 175.947174,70.201469 
M403.558075,55.771980 
	C401.061829,55.768604 398.559906,55.872223 396.070404,55.740891 
	C389.738647,55.406872 389.296783,55.918739 390.713562,62.788509 
	C391.768646,62.860893 392.899750,62.986980 394.032806,63.008408 
	C401.839691,63.156071 401.731567,63.145741 401.492004,71.004051 
	C401.312256,76.900681 401.456512,82.807182 401.456512,88.705841 
	C405.656372,88.705841 408.574982,88.705841 412.079468,88.705841 
	C412.079468,80.047379 412.079468,71.665909 412.079468,62.770100 
	C416.068237,62.770100 419.459839,62.770100 422.711426,62.770100 
	C422.711426,59.945045 422.711426,57.676094 422.711426,55.782246 
	C416.440582,55.782246 410.488647,55.782246 403.558075,55.771980 
M383.887329,63.597759 
	C383.887329,60.978817 383.887329,58.359875 383.887329,55.745258 
	C380.897125,55.602737 378.432159,55.227188 376.037354,55.490192 
	C374.987701,55.605469 373.251953,57.008442 373.235870,57.853466 
	C373.041229,68.093948 373.109711,78.339439 373.109711,88.701736 
	C376.986145,88.701736 380.216553,88.701736 383.887848,88.701736 
	C383.887848,80.457527 383.887848,72.514961 383.887329,63.597759 
M191.366150,88.984169 
	C192.237686,88.126106 193.852463,87.280754 193.867401,86.408043 
	C194.043701,76.100342 193.980759,65.788544 193.980759,55.459167 
	C191.765320,55.576595 189.833527,56.118896 188.157043,55.681835 
	C183.862442,54.562214 182.837219,56.362053 182.952896,60.258694 
	C183.165482,67.419258 183.126373,74.588211 183.132492,81.753723 
	C183.138855,89.220192 182.063950,89.029854 191.366150,88.984169 
z"/>
<path fill="#5372FD" opacity="1.000000" stroke="none" 
	d="
M6.441954,80.392639 
	C1.859666,58.191166 7.203381,38.579788 21.858364,22.328663 
	C36.279064,6.337336 54.918598,0.151565 76.667488,2.538504 
	C88.680336,3.856913 99.241714,7.847666 108.475777,15.252827 
	C125.783470,29.132561 133.065643,47.344128 132.340698,69.508362 
	C131.616211,91.658112 114.965721,120.147186 84.050735,127.406044 
	C47.729023,135.934433 15.560601,115.033264 6.441954,80.392639 
M47.868534,81.489204 
	C61.153923,89.221916 66.371010,101.717079 68.240059,116.420029 
	C69.813545,114.030304 71.454292,111.778732 71.715874,109.376953 
	C73.353912,94.337036 83.846268,81.497231 98.293930,77.227898 
	C101.168991,76.378304 103.971565,75.283432 106.807564,74.301666 
	C83.910843,69.643387 71.739319,55.588612 68.304916,32.753899 
	C63.694134,54.971653 53.233513,70.799225 29.050987,74.189163 
	C35.621891,76.687943 41.427608,78.895737 47.868534,81.489204 
M36.720936,35.058891 
	C36.187538,35.031605 35.387329,34.764286 35.162312,35.014420 
	C33.078125,37.331173 31.093119,39.737152 29.724455,41.354736 
	C31.810789,43.540218 34.129868,45.969505 36.358501,48.304054 
	C37.295071,47.514111 38.591030,46.520699 39.766964,45.401215 
	C40.944775,44.279942 42.002728,43.032768 42.927528,42.040092 
	C40.808891,39.729744 38.932617,37.683693 36.720936,35.058891 
M121.507011,69.263283 
	C120.211502,67.583237 118.915985,65.903183 117.620422,64.223068 
	C116.134705,65.875977 114.783813,67.378883 113.344246,68.980453 
	C114.686691,70.430267 115.986771,71.834320 118.143097,74.163109 
	C119.267723,72.518661 120.190071,71.169983 121.507011,69.263283 
z"/>
<path fill="#3CB7FC" opacity="1.000000" stroke="none" 
	d="
M250.671234,62.369858 
	C245.159134,54.222347 239.853043,46.373947 234.572205,38.508595 
	C234.427322,38.292805 234.553925,37.894737 234.553925,37.248501 
	C239.462021,37.248501 244.391342,37.049374 249.284698,37.380917 
	C250.597046,37.469830 252.106842,38.953846 252.995621,40.181416 
	C255.723923,43.949673 258.298920,47.840332 260.734467,51.805672 
	C262.848816,55.248016 264.596100,54.852482 266.550720,51.731094 
	C268.663391,48.357342 270.946808,45.090141 273.043793,41.707054 
	C275.177185,38.265167 278.019012,36.650917 282.196014,37.036583 
	C285.603027,37.351166 289.062195,37.100571 293.459686,37.100571 
	C287.176880,46.019012 281.681122,54.478577 275.466400,62.372086 
	C272.223297,66.491226 273.203033,69.047455 275.981567,72.673721 
	C283.353394,82.294762 290.318329,92.227547 298.093933,102.929222 
	C291.558899,102.929222 285.869110,103.120438 280.211853,102.776543 
	C279.002350,102.703026 277.712708,100.828918 276.798645,99.543480 
	C272.381165,93.331177 268.079376,87.036644 263.166809,79.949280 
	C258.669312,86.392357 254.382767,92.026863 250.678986,98.021439 
	C248.300613,101.870834 245.520187,103.568306 240.989853,103.067024 
	C237.572906,102.688942 234.080582,102.992203 229.846817,102.992203 
	C233.159210,98.246269 236.041931,94.097504 238.943970,89.962296 
	C243.223282,83.864578 247.237030,77.551361 251.902252,71.763908 
	C254.986755,67.937424 253.037521,65.483299 250.671234,62.369858 
z"/>
<path fill="#5573FB" opacity="1.000000" stroke="none" 
	d="
M352.251099,88.592278 
	C347.012360,88.800980 342.184662,89.087952 337.385132,88.837067 
	C336.222778,88.776306 334.219208,86.968460 334.187988,85.916908 
	C333.926514,77.110695 334.087341,68.292999 334.002441,59.479912 
	C333.974731,56.602886 335.320312,55.709370 337.985687,55.768803 
	C342.473602,55.868866 346.966309,55.733414 351.455627,55.796333 
	C359.875977,55.914337 365.139404,60.305653 365.979187,67.818954 
	C367.245270,79.146935 363.400024,86.001602 354.621399,88.059227 
	C353.974945,88.210739 353.322266,88.335632 352.251099,88.592278 
M353.997589,79.384262 
	C354.636536,77.874428 355.582520,76.419090 355.861755,74.845444 
	C357.138489,67.650047 354.113983,63.029743 348.001465,62.400486 
	C345.395599,62.132225 343.848145,62.703403 343.991119,65.804466 
	C344.167419,69.627663 344.120636,73.468254 344.001404,77.296082 
	C343.864746,81.684860 346.576202,82.132393 349.851135,81.581230 
	C351.102386,81.370659 352.242920,80.502502 353.997589,79.384262 
z"/>
<path fill="#5574FA" opacity="1.000000" stroke="none" 
	d="
M313.116455,68.956497 
	C314.829590,68.650070 316.102875,68.186920 317.403534,68.089622 
	C319.366180,67.942802 321.347900,68.051331 323.661316,68.051331 
	C323.661316,70.398994 323.661316,72.448120 323.661316,75.075447 
	C318.541260,75.075447 313.476379,75.075447 308.645691,75.075447 
	C306.726105,80.133781 309.085938,81.765663 313.059418,81.908058 
	C317.507446,82.067467 321.965576,81.944664 326.734650,81.944664 
	C326.734650,83.843842 326.734650,86.099899 326.734650,88.968544 
	C317.631165,88.968544 308.536469,89.045685 299.448273,88.838707 
	C298.619690,88.819832 297.153625,86.992943 297.132690,85.981850 
	C296.950317,77.172813 297.035797,68.358345 297.029297,59.545502 
	C297.027008,56.419804 298.865631,55.742443 301.599976,55.732578 
	C308.076874,55.709217 314.552765,55.475262 321.029724,55.366653 
	C327.214172,55.262951 327.214539,55.285305 326.498108,62.292313 
	C320.685608,62.292313 314.788025,62.292313 308.972717,62.292313 
	C306.582550,67.127388 309.319641,68.242203 313.116455,68.956497 
z"/>
<path fill="#5775FA" opacity="1.000000" stroke="none" 
	d="
M217.129578,89.194916 
	C205.264648,88.498291 200.692078,82.611282 201.349533,69.451958 
	C201.795059,60.534157 209.736404,53.930145 219.687714,54.201939 
	C228.534088,54.443546 234.766846,60.216640 234.592285,68.243980 
	C230.442032,68.594833 226.430267,69.848961 223.676819,64.543159 
	C222.833832,62.918766 218.503082,61.947659 216.282837,62.554718 
	C214.452911,63.055058 212.825607,66.157860 212.129532,68.421349 
	C211.430054,70.695869 211.313721,73.634483 212.184906,75.776543 
	C213.134354,78.111122 215.184097,80.845474 217.366547,81.575905 
	C219.274170,82.214371 223.410675,80.974686 224.160416,79.412155 
	C226.598343,74.331291 230.340332,74.749474 234.546997,75.316818 
	C234.803192,82.929619 230.420670,88.124992 223.065704,88.988762 
	C221.255554,89.201347 219.413605,89.143234 217.129578,89.194916 
z"/>
<path fill="#5573FB" opacity="1.000000" stroke="none" 
	d="
M175.830521,70.564583 
	C172.077148,79.207008 164.355560,77.515259 157.098419,78.019852 
	C157.098419,81.711380 157.098419,85.112419 157.098419,88.791862 
	C155.099045,88.880341 153.628189,88.840317 152.187408,89.029404 
	C148.279099,89.542351 146.866165,87.988525 146.978882,83.995216 
	C147.204361,76.006721 147.052704,68.005157 146.939194,60.010654 
	C146.891144,56.627552 147.984711,55.214100 151.685104,55.604778 
	C155.805099,56.039757 160.002075,55.760216 164.165573,55.765205 
	C174.266830,55.777302 177.767578,60.059776 175.830521,70.564583 
M157.907608,62.503185 
	C157.610687,64.050621 156.720703,65.805954 157.171280,67.091362 
	C157.700226,68.600281 159.686646,70.930138 160.523697,70.730896 
	C162.458603,70.270325 164.548645,68.793205 165.605911,67.116714 
	C166.042465,66.424469 164.287415,63.792770 162.971695,62.739544 
	C162.020294,61.977951 160.149567,62.364815 157.907608,62.503185 
z"/>
<path fill="#5573FB" opacity="1.000000" stroke="none" 
	d="
M404.047424,55.777115 
	C410.488647,55.782246 416.440582,55.782246 422.711426,55.782246 
	C422.711426,57.676094 422.711426,59.945045 422.711426,62.770100 
	C419.459839,62.770100 416.068237,62.770100 412.079468,62.770100 
	C412.079468,71.665909 412.079468,80.047379 412.079468,88.705841 
	C408.574982,88.705841 405.656372,88.705841 401.456512,88.705841 
	C401.456512,82.807182 401.312256,76.900681 401.492004,71.004051 
	C401.731567,63.145741 401.839691,63.156071 394.032806,63.008408 
	C392.899750,62.986980 391.768646,62.860893 390.713562,62.788509 
	C389.296783,55.918739 389.738647,55.406872 396.070404,55.740891 
	C398.559906,55.872223 401.061829,55.768604 404.047424,55.777115 
z"/>
<path fill="#5B77FB" opacity="1.000000" stroke="none" 
	d="
M383.887573,64.085083 
	C383.887848,72.514961 383.887848,80.457527 383.887848,88.701736 
	C380.216553,88.701736 376.986145,88.701736 373.109711,88.701736 
	C373.109711,78.339439 373.041229,68.093948 373.235870,57.853466 
	C373.251953,57.008442 374.987701,55.605469 376.037354,55.490192 
	C378.432159,55.227188 380.897125,55.602737 383.887329,55.745258 
	C383.887329,58.359875 383.887329,60.978817 383.887573,64.085083 
z"/>
<path fill="#5573FB" opacity="1.000000" stroke="none" 
	d="
M190.901932,88.986771 
	C182.063950,89.029854 183.138855,89.220192 183.132492,81.753723 
	C183.126373,74.588211 183.165482,67.419258 182.952896,60.258694 
	C182.837219,56.362053 183.862442,54.562214 188.157043,55.681835 
	C189.833527,56.118896 191.765320,55.576595 193.980759,55.459167 
	C193.980759,65.788544 194.043701,76.100342 193.867401,86.408043 
	C193.852463,87.280754 192.237686,88.126106 190.901932,88.986771 
z"/>
<path fill="#FCFDFF" opacity="1.000000" stroke="none" 
	d="
M47.550930,81.296371 
	C41.427608,78.895737 35.621891,76.687943 29.050987,74.189163 
	C53.233513,70.799225 63.694134,54.971653 68.304916,32.753899 
	C71.739319,55.588612 83.910843,69.643387 106.807564,74.301666 
	C103.971565,75.283432 101.168991,76.378304 98.293930,77.227898 
	C83.846268,81.497231 73.353912,94.337036 71.715874,109.376953 
	C71.454292,111.778732 69.813545,114.030304 68.240059,116.420029 
	C66.371010,101.717079 61.153923,89.221916 47.550930,81.296371 
z"/>
<path fill="#F6F7FE" opacity="1.000000" stroke="none" 
	d="
M36.888638,35.348267 
	C38.932617,37.683693 40.808891,39.729744 42.927528,42.040092 
	C42.002728,43.032768 40.944775,44.279942 39.766964,45.401215 
	C38.591030,46.520699 37.295071,47.514111 36.358501,48.304054 
	C34.129868,45.969505 31.810789,43.540218 29.724455,41.354736 
	C31.093119,39.737152 33.078125,37.331173 35.162312,35.014420 
	C35.387329,34.764286 36.187538,35.031605 36.888638,35.348267 
z"/>
<path fill="#F6F8FE" opacity="1.000000" stroke="none" 
	d="
M121.309715,69.542297 
	C120.190071,71.169983 119.267723,72.518661 118.143097,74.163109 
	C115.986771,71.834320 114.686691,70.430267 113.344246,68.980453 
	C114.783813,67.378883 116.134705,65.875977 117.620422,64.223068 
	C118.915985,65.903183 120.211502,67.583237 121.309715,69.542297 
z"/>
<path fill="#FAFBFE" opacity="1.000000" stroke="none" 
	d="
M353.715759,79.659134 
	C352.242920,80.502502 351.102386,81.370659 349.851135,81.581230 
	C346.576202,82.132393 343.864746,81.684860 344.001404,77.296082 
	C344.120636,73.468254 344.167419,69.627663 343.991119,65.804466 
	C343.848145,62.703403 345.395599,62.132225 348.001465,62.400486 
	C354.113983,63.029743 357.138489,67.650047 355.861755,74.845444 
	C355.582520,76.419090 354.636536,77.874428 353.715759,79.659134 
z"/>
<path fill="#F4F6FD" opacity="1.000000" stroke="none" 
	d="
M158.298218,62.371346 
	C160.149567,62.364815 162.020294,61.977951 162.971695,62.739544 
	C164.287415,63.792770 166.042465,66.424469 165.605911,67.116714 
	C164.548645,68.793205 162.458603,70.270325 160.523697,70.730896 
	C159.686646,70.930138 157.700226,68.600281 157.171280,67.091362 
	C156.720703,65.805954 157.610687,64.050621 158.298218,62.371346 
z"/>
</svg>